<svg xmlns="http://www.w3.org/2000/svg" viewBox="0 0 1200 800" role="img" aria-label="City destination">
  <defs>
    <linearGradient id="night" x1="0" y1="0" x2="0" y2="1">
      <stop offset="0" stop-color="#0f172a"/>
      <stop offset="1" stop-color="#312e81"/>
    </linearGradient>
  </defs>
  <rect width="1200" height="800" fill="url(#night)"/>
  <rect x="70" y="280" width="150" height="420" fill="#1e293b"/>
  <rect x="250" y="200" width="210" height="500" fill="#334155"/>
  <rect x="500" y="150" width="170" height="550" fill="#1e3a8a"/>
  <rect x="700" y="230" width="220" height="470" fill="#3730a3"/>
  <rect x="950" y="300" width="180" height="400" fill="#312e81"/>
  <g fill="#fcd34d">
    <rect x="100" y="320" width="28" height="28"/><rect x="140" y="320" width="28" height="28"/>
    <rect x="280" y="240" width="28" height="28"/><rect x="320" y="240" width="28" height="28"/><rect x="360" y="240" width="28" height="28"/>
    <rect x="530" y="190" width="24" height="24"/><rect x="565" y="190" width="24" height="24"/>
    <rect x="730" y="260" width="28" height="28"/><rect x="770" y="260" width="28" height="28"/><rect x="810" y="260" width="28" height="28"/>
    <rect x="980" y="330" width="24" height="24"/><rect x="1015" y="330" width="24" height="24"/>
  </g>
  <text x="80" y="110" fill="#e0e7ff" font-size="66" font-family="Poppins, Arial, sans-serif" font-weight="700">City Weekend</text>
</svg>